Coordinates
version=1
nRows=30
nColumns=38
inDegrees=no

Units are S.I. units (second, meters, Newtons, ...)
If the header above contains a line with 'inDegrees', this indicates whether rotational values are in degrees (yes) or radians (no).

endheader
time	pelvis_tilt	pelvis_list	pelvis_rotation	pelvis_tx	pelvis_ty	pelvis_tz	hip_flexion_r	hip_adduction_r	hip_rotation_r	knee_angle_r	ankle_angle_r	subtalar_angle_r	mtp_angle_r	hip_flexion_l	hip_adduction_l	hip_rotation_l	knee_angle_l	ankle_angle_l	subtalar_angle_l	mtp_angle_l	lumbar_extension	lumbar_bending	lumbar_rotation	arm_flex_r	arm_add_r	arm_rot_r	elbow_flex_r	pro_sup_r	wrist_flex_r	wrist_dev_r	arm_flex_l	arm_add_l	arm_rot_l	elbow_flex_l	pro_sup_l	wrist_flex_l	wrist_dev_l
0.741667	-0.0977103	0.162901	0.0496277	0.980462	0.929278	-0.331079	0.923604	-0.0850769	0.186643	-2.23346	0.0741899	-0.0164164	0.00649309	0.212983	0.371173	0.151539	-0.784796	0.476195	-0.0119736	-0.0305468	-0.155392	-0.157315	-0.30988	-0.698579	-0.328966	-0.116253	1.09959	2.1307	0.0274722	0.00618116	-0.297672	-0.285	-0.0823772	2.0587	2.22436	0.1	-0.0814773
0.75	-0.0964431	0.14059	0.0327594	0.982746	0.934592	-0.329843	0.956534	-0.0442963	0.18795	-2.16378	0.0916633	-0.0164164	0.00649309	0.140629	0.338386	0.156736	-0.725736	0.43619	-0.0119736	-0.0305468	-0.1434	-0.131552	-0.307016	-0.730911	-0.338517	-0.121346	1.11544	2.12718	0.0274722	0.00618116	-0.286196	-0.275823	-0.0757601	2.07981	2.23194	0.1	-0.0814773
0.758333	-0.0949283	0.11647	0.0164488	0.985679	0.940601	-0.328423	0.980574	-0.00347766	0.184381	-2.08515	0.108332	-0.0164164	0.00649309	0.0660306	0.303015	0.158093	-0.660615	0.37589	-0.0119736	-0.0305468	-0.131019	-0.10396	-0.305288	-0.763557	-0.348588	-0.125159	1.13562	2.12183	0.0274722	0.00618116	-0.280755	-0.26663	-0.0698302	2.1013	2.23916	0.1	-0.0814773
0.766667	-0.0934324	0.0909946	0.000899337	0.989106	0.947092	-0.326847	0.996657	0.0366301	0.177382	-1.99866	0.123866	-0.0164164	0.00649309	-0.00910519	0.265868	0.155233	-0.591717	0.297149	-0.0119736	-0.0305468	-0.118449	-0.0749022	-0.30489	-0.796226	-0.359047	-0.128446	1.15939	2.11577	0.0274722	0.00618116	-0.280893	-0.257836	-0.0641549	2.12313	2.2461	0.1	-0.0814773
0.775	-0.092349	0.0648912	-0.0136916	0.992855	0.953819	-0.325155	1.00599	0.0751962	0.168593	-1.90519	0.137957	-0.0164164	0.00649309	-0.0827672	0.228043	0.148335	-0.521737	0.203544	-0.0119736	-0.0305468	-0.105668	-0.0450494	-0.305993	-0.828576	-0.369832	-0.131763	1.18608	2.11	0.0274722	0.00618116	-0.285988	-0.24985	-0.0583157	2.14522	2.25264	0.1	-0.0814773
0.783333	-0.0921486	0.0391986	-0.0270819	0.996743	0.960518	-0.323413	1.00989	0.11118	0.159706	-1.80549	0.15039	-0.0164164	0.00649309	-0.152778	0.190983	0.138251	-0.453748	0.100199	-0.0119736	-0.0305468	-0.0924776	-0.0154395	-0.308775	-0.860195	-0.380902	-0.135426	1.21501	2.10526	0.0274722	0.00618116	-0.295292	-0.243056	-0.0519418	2.16747	2.25853	0.1	-0.0814773
0.791667	-0.0933063	0.0152331	-0.0389645	1.00058	0.966937	-0.321706	1.00963	0.143289	0.152307	-1.7002	0.161108	-0.0164164	0.00649309	-0.216982	0.156409	0.126459	-0.391092	-0.00666754	-0.0119736	-0.0305468	-0.0785793	0.0125576	-0.313394	-0.890608	-0.392164	-0.139547	1.24546	2.10199	0.0274722	0.00618116	-0.307959	-0.23778	-0.0447412	2.18966	2.26353	0.1	-0.0814773
0.8	-0.0962027	-0.00553434	-0.0489917	1.00418	0.972876	-0.320136	1.00633	0.170051	0.147739	-1.58995	0.170263	-0.0164164	0.00649309	-0.27348	0.12615	0.114809	-0.337147	-0.11042	-0.0119736	-0.0305468	-0.0636969	0.0373711	-0.319917	-0.919286	-0.403418	-0.14409	1.27658	2.10033	0.0274722	0.00618116	-0.323075	-0.234261	-0.0365317	2.21145	2.26749	0.1	-0.0814773
0.808333	-0.101021	-0.0216655	-0.0568379	1.00738	0.978189	-0.318817	1.00083	0.190025	0.146996	-1.47556	0.178245	-0.0164164	0.00649309	-0.320853	0.101895	0.1051	-0.295024	-0.2048	-0.0119736	-0.0305468	-0.0477061	0.0574309	-0.328235	-0.945674	-0.414317	-0.148932	1.30745	2.10013	0.0274722	0.00618116	-0.339699	-0.232627	-0.0272708	2.23236	2.27052	0.1	-0.0814773
0.816667	-0.107656	-0.0319737	-0.0622847	1.01009	0.98278	-0.31786	0.993609	0.202067	0.150664	-1.35806	0.185678	-0.0164164	0.00649309	-0.358333	0.0849236	0.0985869	-0.267267	-0.284692	-0.0119736	-0.0305468	-0.0307558	0.0714026	-0.337978	-0.969201	-0.424379	-0.153909	1.33705	2.10097	0.0274722	0.00618116	-0.356901	-0.23288	-0.0170801	2.25184	2.27308	0.1	-0.0814773
0.825	-0.115698	-0.0357197	-0.0653031	1.01227	0.986604	-0.317339	0.984824	0.2056	0.158922	-1.23891	0.19337	-0.0164164	0.00649309	-0.385815	0.0758865	0.0955768	-0.255669	-0.346691	-0.0119736	-0.0305468	-0.0133174	0.0783933	-0.348495	-0.989301	-0.433038	-0.158836	1.36433	2.10225	0.0274722	0.00618116	-0.373826	-0.234888	-0.0062573	2.26924	2.27587	0.1	-0.0814773
0.833333	-0.124474	-0.0327572	-0.0661194	1.01391	0.98967	-0.31727	0.974356	0.200806	0.171564	-1.11996	0.202172	-0.0164164	0.00649309	-0.403778	0.0746667	0.0952481	-0.261214	-0.389413	-0.0119736	-0.0305468	0.0038248	0.0781126	-0.358878	-1.00543	-0.439742	-0.163502	1.3883	2.10332	0.0274722	0.00618116	-0.389765	-0.238376	0.00473174	2.28392	2.27968	0.1	-0.0814773
0.841667	-0.133147	-0.0235713	-0.0652326	1.01508	0.992038	-0.317592	0.961937	0.188666	0.188017	-1.0035	0.212777	-0.0164164	0.00649309	-0.413072	0.0803599	0.0957557	-0.284191	-0.413453	-0.0119736	-0.0305468	0.0196731	0.0709386	-0.368062	-1.01709	-0.444071	-0.167657	1.40811	2.10354	0.0274722	0.00618116	-0.404222	-0.242932	0.0152896	2.29529	2.28521	0.1	-0.0814773
0.85	-0.140839	-0.00923051	-0.063376	1.01583	0.993799	-0.318176	0.947277	0.170847	0.207338	-0.892103	0.225497	-0.0164164	0.00649309	-0.414683	0.0913732	0.094604	-0.32436	-0.421044	-0.0119736	-0.0305468	0.0331688	0.0578894	-0.37497	-1.02387	-0.445844	-0.171007	1.42319	2.10243	0.0274722	0.00618116	-0.416967	-0.248021	0.0247532	2.3029	2.29279	0.1	-0.0814773
0.858333	-0.146765	0.0087404	-0.0614273	1.0162	0.995044	-0.318855	0.930177	0.149476	0.228196	-0.788467	0.240099	-0.0164164	0.00649309	-0.40956	0.105616	0.0891845	-0.381084	-0.415546	-0.0119736	-0.0305468	0.0433475	0.0405136	-0.37866	-1.02548	-0.445195	-0.173223	1.43329	2.09974	0.0274722	0.00618116	-0.428043	-0.25302	0.0324811	2.30648	2.30221	0.1	-0.0814773
0.866667	-0.15032	0.0285431	-0.0602875	1.01625	0.995838	-0.319465	0.910581	0.126857	0.248898	-0.695137	0.255774	-0.0164164	0.00649309	-0.398551	0.12075	0.0773533	-0.453362	-0.400856	-0.0119736	-0.0305468	0.0494717	0.0207187	-0.378455	-1.02179	-0.442578	-0.173961	1.43859	2.09546	0.0274722	0.00618116	-0.437743	-0.25728	0.0379453	2.30595	2.31261	0.1	-0.0814773
0.875	-0.151152	0.0482993	-0.0607518	1.01601	0.996219	-0.319869	0.888578	0.105192	0.267502	-0.614257	0.271269	-0.0164164	0.00649309	-0.382413	0.134483	0.0579189	-0.539795	-0.380834	-0.0119736	-0.0305468	0.051109	0.000538313	-0.374013	-1.01287	-0.438719	-0.172896	1.43963	2.08986	0.0274722	0.00618116	-0.446539	-0.260198	0.0408122	2.30144	2.32247	0.1	-0.0814773
0.883333	-0.14917	0.0662648	-0.0633992	1.01548	0.996196	-0.319991	0.864372	0.0863524	0.282076	-0.547355	0.28514	-0.0164164	0.00649309	-0.361855	0.144852	0.0309198	-0.638557	-0.358831	-0.0119736	-0.0305468	0.0481626	-0.0181125	-0.365334	-0.999012	-0.434497	-0.169757	1.4373	2.08337	0.0274722	0.00618116	-0.454978	-0.261304	0.0409954	2.29322	2.32986	0.1	-0.0814773
0.891667	-0.144548	0.0810085	-0.0685259	1.01465	0.995746	-0.319817	0.838261	0.0717409	0.291043	-0.495234	0.295999	-0.0164164	0.00649309	-0.337553	0.150443	-0.00240251	-0.747418	-0.337335	-0.0119736	-0.0305468	0.0408581	-0.0336512	-0.352689	-0.980675	-0.430797	-0.164355	1.43272	2.0766	0.0274722	0.00618116	-0.463576	-0.260319	0.0386688	2.28167	2.33282	0.1	-0.0814773
0.9	-0.137683	0.0915313	-0.076127	1.01352	0.994844	-0.319374	0.81064	0.0622494	0.29354	-0.457995	0.302669	-0.0164164	0.00649309	-0.310128	0.150495	-0.0398975	-0.863864	-0.317792	-0.0119736	-0.0305468	0.029694	-0.0449698	-0.336522	-0.958471	-0.428371	-0.156626	1.42704	2.07012	0.0274722	0.00618116	-0.472711	-0.257204	0.0342432	2.26714	2.32983	0.1	-0.0814773
0.908333	-0.12915	0.0973131	-0.0859238	1.01207	0.993429	-0.318724	0.78203	0.0583032	0.28966	-0.435194	0.304224	-0.0164164	0.00649309	-0.280081	0.144882	-0.0789637	-0.985264	-0.300601	-0.0119736	-0.0305468	0.0153763	-0.0514839	-0.317332	-0.933111	-0.427729	-0.146646	1.42138	2.06443	0.0274722	0.00618116	-0.482552	-0.252152	0.0283047	2.24991	2.32021	0.1	-0.0814773
0.916667	-0.11964	0.0982897	-0.0974229	1.01033	0.991451	-0.317931	0.753122	0.0599514	0.280482	-0.426079	0.300008	-0.0164164	0.00649309	-0.247712	0.133988	-0.117022	-1.10908	-0.285292	-0.0119736	-0.0305468	-0.00125892	-0.0531032	-0.295587	-0.905338	-0.429083	-0.134646	1.41669	2.0598	0.0274722	0.00618116	-0.493036	-0.245558	0.0215281	2.23012	2.30433	0.1	-0.0814773
0.925	-0.1099	0.0947901	-0.109995	1.00828	0.988853	-0.317057	0.724794	0.0669511	0.267851	-0.42983	0.289743	-0.0164164	0.00649309	-0.213063	0.118565	-0.151866	-1.23301	-0.270859	-0.0119736	-0.0305468	-0.0193246	-0.0501587	-0.271673	-0.875869	-0.432361	-0.121003	1.4137	2.05631	0.0274722	0.00618116	-0.503892	-0.237953	0.0145782	2.20776	2.28361	0.1	-0.0814773
0.933333	-0.100655	0.0874642	-0.122958	1.00595	0.985592	-0.316161	0.698077	0.0788156	0.253963	-0.445708	0.273789	-0.0164164	0.00649309	-0.175872	0.0996213	-0.181847	-1.35512	-0.256166	-0.0119736	-0.0305468	-0.0379425	-0.0433182	-0.24589	-0.845326	-0.437269	-0.106199	1.4129	2.05385	0.0274722	0.00618116	-0.514702	-0.229938	0.00802059	2.1827	2.26015	0.1	-0.0814773
0.941667	-0.0925492	0.0772337	-0.135662	1.00335	0.981623	-0.315301	0.674053	0.0948164	0.240919	-0.47308	0.253487	-0.0164164	0.00649309	-0.135583	0.0783703	-0.205889	-1.47378	-0.240319	-0.0119736	-0.0305468	-0.0562972	-0.033508	-0.218469	-0.814183	-0.443379	-0.0907768	1.41456	2.05223	0.0274722	0.00618116	-0.524987	-0.222102	0.00226297	2.15475	2.23641	0.1	-0.0814773
0.95	-0.0861021	0.065201	-0.147557	1.00048	0.976939	-0.314539	0.65366	0.113969	0.230344	-0.511272	0.231411	-0.0164164	0.00649309	-0.0914238	0.0561778	-0.223443	-1.58767	-0.22287	-0.0119736	-0.0305468	-0.0736844	-0.0218315	-0.189617	-0.782727	-0.450229	-0.0752689	1.41876	2.05126	0.0274722	0.00618116	-0.534298	-0.214975	-0.00244896	2.12376	2.21459	0.1	-0.0814773
0.958333	-0.0816685	0.0525486	-0.15823	0.997348	0.971609	-0.313934	0.637456	0.135035	0.223197	-0.559299	0.211267	-0.0164164	0.00649309	-0.0425316	0.034487	-0.234405	-1.69563	-0.203824	-0.0119736	-0.0305468	-0.0895484	-0.00947734	-0.159566	-0.751053	-0.457399	-0.0601399	1.42545	2.05084	0.0274722	0.00618116	-0.542299	-0.208983	-0.00599822	2.08968	2.19621	0.1	-0.0814773
0.966667	-0.0793925	0.0404319	-0.167405	0.993983	0.965814	-0.313536	0.62538	0.156551	0.219779	-0.615545	0.197373	-0.0164164	0.00649309	0.0118471	0.0147039	-0.239025	-1.79652	-0.183485	-0.0119736	-0.0305468	-0.103518	0.0023775	-0.128624	-0.719083	-0.464562	-0.04574	1.43454	2.05085	0.0274722	0.00618116	-0.54883	-0.204437	-0.00834215	2.05267	2.18203	0.1	-0.0814773
0.975	-0.0791689	0.0298561	-0.174905	0.990406	0.959839	-0.313376	0.616598	0.176923	0.219878	-0.677506	0.193751	-0.0164164	0.00649309	0.0721505	-0.00195667	-0.237826	-1.88918	-0.162244	-0.0119736	-0.0305468	-0.115423	0.0126763	-0.0972258	-0.686624	-0.471494	-0.0322904	1.44587	2.0512	0.0274722	0.00618116	-0.553956	-0.201531	-0.00946006	2.01314	2.17201	0.1	-0.0814773
0.983333	-0.0806881	0.0215761	-0.180612	0.986644	0.953988	-0.313458	0.609501	0.194562	0.222959	-0.741758	0.203161	-0.0164164	0.00649309	0.138313	-0.0146141	-0.231524	-1.97233	-0.140414	-0.0119736	-0.0305468	-0.12532	0.0205832	-0.0659468	-0.653448	-0.478061	-0.0199044	1.45936	2.05166	0.0274722	0.00618116	-0.557976	-0.200356	-0.00932581	1.97185	2.16552	0.1	-0.0814773
